<?xml version="1.0" encoding="UTF-8"?>
<!DOCTYPE svg PUBLIC "-//W3C//DTD SVG 1.1//EN" "http://www.w3.org/Graphics/SVG/1.1/DTD/svg11.dtd">
<!-- Creator: CorelDRAW 2017 -->
<svg xmlns="http://www.w3.org/2000/svg" xml:space="preserve" width="100%" height="100%" version="1.1" style="shape-rendering:geometricPrecision; text-rendering:geometricPrecision; image-rendering:optimizeQuality; fill-rule:evenodd; clip-rule:evenodd"
viewBox="0 0 1693.32 1693.32"
 xmlns:xlink="http://www.w3.org/1999/xlink">
 <defs>
  <style type="text/css">
   <![CDATA[
    .fil0 {fill:none}
    .fil1 {fill:#008CDB}
    .fil2 {fill:#303030}
   ]]>
  </style>
 </defs>
 <g id="Camada_x0020_1">
  <metadata id="CorelCorpID_0Corel-Layer"/>
  <g id="_1769939871280">
   <rect class="fil0" x="0" y="-0.02" width="1693.33" height="1693.33"/>
   <g>
    <path class="fil1" d="M555.94 1218.63l245.86 114.8 425.66 -1232.25 -671.52 1117.45zm373.61 -22.61c116.16,-35.44 200.72,-143.42 200.72,-271.2 0,-60.3 -18.95,-116.1 -51.06,-162.05l-149.66 433.25zm-116.47 -552.65c-140.76,16.66 -250.01,136.21 -250.01,281.45 0,36.13 7.05,70.59 19.36,102.37l230.65 -383.83 0 0.01z"/>
    <path class="fil2" d="M163.57 924.82c0,-377.26 305.84,-683.12 683.11,-683.12 66.46,0 130.6,9.68 191.34,27.4l80.35 -133.75c-87.16,-29.98 -179.14,-45.44 -271.42,-45.44 0,0 -0.3,0 -0.3,0 -461.13,0 -834.91,373.79 -834.91,834.91 0,279.68 137.66,527.07 348.77,678.58l76.27 -132.11c-165.93,-124.63 -273.24,-322.99 -273.24,-546.47l0.03 0zm1107.94 -718.7l-50.84 147.16c186.1,122.05 309.11,332.37 309.11,571.54 0,223.47 -107.34,421.84 -273.25,546.46l76.27 132.12c211.11,-151.5 348.79,-398.86 348.79,-678.58 0,-305.95 -164.67,-573.31 -410.08,-718.7z"/>
   </g>
  </g>
 </g>
</svg>
