<svg xmlns="http://www.w3.org/2000/svg" image-rendering="optimizeQuality" shape-rendering="geometricPrecision" text-rendering="geometricPrecision" viewBox="0 0 1693.3 1693.3"><defs><style type="text/css">  
    .fil0 {fill:none}
    .fil1 {fill:#008CDB}
    .fil2 {fill:#303030}
   </style></defs><rect class="fil0" width="1693.3" height="1693.3"/><path class="fil1" d="m555.9 1218.6l245.9 114.8 425.7-1232.2-671.5 1117.4zm373.6-22.6c116.2-35.4 200.7-143.4 200.7-271.2 0-60.3-18.9-116.1-51.1-162l-149.7 433.3zm-116.5-552.6c-140.8 16.7-250 136.2-250 281.5 0 36.1 7.1 70.6 19.4 102.4l230.7-383.8v0z"/><path class="fil2" d="m163.6 924.8c0-377.3 305.8-683.1 683.1-683.1 66.5 0 130.6 9.7 191.3 27.4l80.4-133.7c-87.2-30-179.1-45.4-271.4-45.4h-0.3c-461.1 0-834.9 373.8-834.9 834.9 0 279.7 137.7 527.1 348.8 678.6l76.3-132.1c-165.9-124.6-273.2-323-273.2-546.5h0zm1107.9-718.7l-50.8 147.2c186.1 122.1 309.1 332.4 309.1 571.5 0 223.5-107.3 421.8-273.2 546.5l76.3 132.1c211.1-151.5 348.8-398.9 348.8-678.6 0-305.9-164.7-573.3-410.1-718.7z"/></svg>