<?xml version="1.0" encoding="UTF-8"?>
<!DOCTYPE svg PUBLIC "-//W3C//DTD SVG 1.1//EN" "http://www.w3.org/Graphics/SVG/1.1/DTD/svg11.dtd">
<!-- Creator: CorelDRAW 2017 -->
<svg xmlns="http://www.w3.org/2000/svg" xml:space="preserve" width="100%" height="100%" version="1.1" style="shape-rendering:geometricPrecision; text-rendering:geometricPrecision; image-rendering:optimizeQuality; fill-rule:evenodd; clip-rule:evenodd"
viewBox="0 0 10000 2000"
 xmlns:xlink="http://www.w3.org/1999/xlink">
 <defs>
  <style type="text/css">
   <![CDATA[
    .fil1 {fill:#008CDB}
    .fil2 {fill:#303030}
    .fil0 {fill:#303030;fill-rule:nonzero}
   ]]>
  </style>
 </defs>
 <g id="Camada_x0020_1">
  <metadata id="CorelCorpID_0Corel-Layer"/>
  <path class="fil0" d="M2812.05 1274.8l190.19 -519.55c25.51,-69.59 48.71,-155.41 60.31,-227.31l11.59 0c13.92,71.9 39.43,155.4 64.95,227.31l183.23 519.55 -510.27 0zm-575.22 640.16l350.23 0 136.85 -385.03 681.91 0 132.21 385.03 364.15 0 -600.73 -1651.43 -443.01 0 -621.61 1651.43zm1832.35 0l334 0 0 -164.68c125.25,139.17 245.86,192.51 385.02,192.51 320.08,0 482.44,-252.81 482.44,-728.3 0,-301.52 -90.45,-714.38 -484.76,-714.38 -171.63,0 -259.77,81.18 -382.7,190.19l0 -577.54 -334 0 0 1802.2zm334 -1004.31c60.3,-81.18 148.44,-155.4 252.82,-155.4 192.51,0 273.69,166.99 273.69,461.56 0,278.33 -76.54,470.85 -259.78,470.85 -109.01,0 -194.83,-57.99 -266.73,-155.41l0 -621.6zm2082.85 -88.14c-51.03,-167 -204.11,-322.4 -519.56,-322.4 -259.77,0 -500.99,120.61 -500.99,422.13 0,211.07 148.44,324.72 345.59,385.03l213.39 67.26c78.86,23.2 155.4,55.67 153.08,157.72 0,69.59 -55.67,173.96 -208.75,173.96 -153.08,0 -218.02,-76.54 -255.13,-204.11l-285.29 88.14c27.83,120.61 134.52,352.55 491.71,352.55 301.53,0 591.46,-88.14 591.46,-447.65 0,-206.43 -125.25,-317.76 -313.12,-378.06l-266.74 -88.14c-60.3,-20.88 -146.12,-48.71 -146.12,-150.77 0,-109.01 90.46,-155.4 180.91,-155.4 187.88,0 222.67,118.29 241.22,185.56l278.34 -85.82zm507.95 398.94c0,-340.96 111.33,-484.76 287.61,-484.76 176.27,0 287.6,143.8 287.6,484.76 0,350.23 -111.33,484.76 -287.6,484.76 -176.28,0 -287.61,-134.53 -287.61,-484.76zm-347.92 -4.64c0,452.29 245.86,725.98 635.53,725.98 371.1,0 635.52,-273.69 635.52,-725.98 0,-424.45 -229.62,-716.7 -635.52,-716.7 -387.35,0 -635.53,292.25 -635.53,716.7zm1574.89 698.15l334 0 0 -1036.79 273.69 0 0 -236.58 -273.69 0 0 -113.65c0,-139.16 44.07,-231.94 173.96,-231.94 69.58,0 127.57,11.6 162.36,25.51l0 -236.58c-71.9,-18.56 -122.93,-25.51 -199.47,-25.51 -352.56,0 -470.85,190.19 -470.85,456.92l0 125.25 -199.47 0 0 236.58 199.47 0 0 1036.79zm1516.91 -1273.37l-324.72 0 0 -454.61 -334 139.17 0 315.44 -199.47 0 0 236.58 199.47 0 0 621.61c0,234.26 90.46,443.01 403.58,443.01 111.34,0 220.35,-25.51 259.78,-41.75l0 -241.22c-48.71,20.88 -118.29,27.84 -162.36,27.84 -160.04,0 -167,-95.1 -167,-238.91l0 -570.58 324.72 0 0 -236.58z"/>
  <path class="fil1" d="M840.87 1502.18l259.41 121.12 449.12 -1300.17 -708.53 1179.05zm394.2 -23.86c122.56,-37.39 211.78,-151.33 211.78,-286.15 0,-63.63 -19.99,-122.5 -53.87,-170.99l-157.91 457.14zm-122.89 -583.12c-148.52,17.59 -263.79,143.72 -263.79,296.97 0,38.12 7.43,74.48 20.43,108.01l243.36 -404.98 0 0z"/>
  <path class="fil2" d="M426.87 1192.17c0,-398.06 322.7,-720.77 720.76,-720.77 70.12,0 137.8,10.21 201.89,28.91l84.77 -141.13c-91.96,-31.62 -189.01,-47.94 -286.37,-47.94 0,0 -0.32,0 -0.32,0 -486.54,0 -880.93,394.39 -880.93,880.93 0,295.1 145.25,556.12 367.99,715.98l80.48 -139.4c-175.07,-131.49 -288.3,-340.78 -288.3,-576.58l0.03 0zm1169 -758.31l-53.64 155.27c196.36,128.77 326.15,350.69 326.15,603.04 0,235.79 -113.25,445.08 -288.31,576.57l80.48 139.41c222.74,-159.86 368.01,-420.85 368.01,-715.98 0,-322.82 -173.74,-604.92 -432.69,-758.31z"/>
 </g>
</svg>
